<svg width="600" height="75" xmlns="http://www.w3.org/2000/svg" version="1.1" xml:space="preserve">
 <g>
  <title>Layer 1</title>
  <g id="svg_3"/>
  <g id="svg_4"/>
  <g id="svg_5"/>
  <g id="svg_6"/>
  <g id="svg_7"/>
  <g id="svg_8"/>
  <g id="svg_9"/>
  <g id="svg_10"/>
  <g id="svg_11"/>
  <g id="svg_12"/>
  <g id="svg_13"/>
  <g id="svg_14"/>
  <g id="svg_15"/>
  <g id="svg_16"/>
  <g id="svg_17"/>
  <g stroke="null" id="svg_19">
   <g stroke="#000" id="svg_1" fill="#000000" stroke-width="0">
    <path stroke="null" d="m38.30748,5.9664c-17.38766,0 -31.5336,14.14594 -31.5336,31.5336s14.14594,31.5336 31.5336,31.5336s31.5336,-14.14594 31.5336,-31.5336s-14.14564,-31.5336 -31.5336,-31.5336zm0.1061,39.4092c0.86078,0.89465 2.28383,0.92252 3.17818,0.06144c0.89465,-0.86078 0.92222,-2.28383 0.06144,-3.17818l-3.468,-3.60467l6.25565,-9.81776l15.29355,18.9234l-42.54182,0l11.31543,-12.68063l9.90558,10.2964zm-0.1061,-34.91348c14.90872,0 27.03787,12.12916 27.03787,27.03787c0,2.93031 -0.47025,5.75213 -1.33643,8.39651l-18.03624,-22.31707c-0.45467,-0.56256 -1.1539,-0.87007 -1.87442,-0.83141c-0.72231,0.04076 -1.38079,0.42649 -1.76952,1.03641l-7.35021,11.53602l-4.91293,-5.10654c-0.43369,-0.45077 -1.02502,-0.69953 -1.66192,-0.68904c-0.6258,0.01169 -1.21834,0.28383 -1.63524,0.75079l-14.10278,15.80456c-0.90484,-2.69713 -1.39607,-5.58219 -1.39607,-8.58024c0,-14.90872 12.12916,-27.03787 27.03787,-27.03787zm0,54.07605c-9.46829,0 -17.81415,-4.89314 -22.64555,-12.28261l45.29081,0c-4.8308,7.38947 -13.17666,12.28261 -22.64525,12.28261z" id="svg_2" fill="#ceb888"/>
   </g>
   <text stroke="#000" fill="#000000" stroke-width="0" x="246.77823" y="152.1828" id="svg_18" font-size="140" font-family="Helvetica Neue" text-anchor="start" xml:space="preserve" font-weight="bold" transform="matrix(0.299715 0 0 0.328676 3.44363 3.49668)">Community Crag</text>
  </g>
 </g>

</svg>