<?xml version="1.0" encoding="iso-8859-1"?>
<!-- Generator: Adobe Illustrator 19.0.0, SVG Export Plug-In . SVG Version: 6.00 Build 0)  -->
<svg version="1.1" id="Layer_1" xmlns="http://www.w3.org/2000/svg" xmlns:xlink="http://www.w3.org/1999/xlink" x="0px" y="0px" width="24px" height="24px"
	 viewBox="0 0 512.021 512.021" stroke="white" fill="white" style="enable-background:new 0 0 512.021 512.021;" xml:space="preserve">
<g transform="translate(-1 -1)">
	<g>
		<g>
			<path stroke="white" d="M508.184,249.202c0.203-0.247,0.379-0.507,0.568-0.76c0.227-0.304,0.463-0.601,0.674-0.917
				c0.203-0.303,0.379-0.618,0.565-0.93c0.171-0.286,0.35-0.565,0.508-0.86c0.17-0.318,0.314-0.645,0.467-0.969
				c0.145-0.307,0.298-0.609,0.428-0.923c0.13-0.315,0.235-0.636,0.35-0.956c0.121-0.337,0.25-0.67,0.355-1.015
				c0.097-0.32,0.168-0.645,0.249-0.968c0.089-0.351,0.187-0.698,0.258-1.056c0.074-0.375,0.118-0.753,0.172-1.13
				c0.044-0.311,0.104-0.618,0.135-0.933c0.138-1.4,0.138-2.811,0-4.211c-0.031-0.315-0.09-0.621-0.135-0.932
				c-0.054-0.378-0.098-0.756-0.173-1.13c-0.071-0.358-0.169-0.704-0.258-1.055c-0.081-0.324-0.152-0.649-0.249-0.969
				c-0.104-0.344-0.233-0.677-0.354-1.013c-0.115-0.32-0.22-0.642-0.35-0.957c-0.13-0.314-0.283-0.616-0.428-0.922
				c-0.153-0.325-0.297-0.652-0.467-0.97c-0.157-0.294-0.337-0.573-0.507-0.859c-0.186-0.312-0.362-0.627-0.565-0.931
				c-0.211-0.315-0.446-0.612-0.673-0.915c-0.19-0.254-0.367-0.515-0.57-0.762c-0.443-0.539-0.909-1.058-1.402-1.551
				c-0.004-0.004-0.007-0.008-0.011-0.012l-64-64c-8.331-8.331-21.839-8.331-30.17,0c-8.331,8.331-8.331,21.839,0,30.17
				l27.582,27.582h-55.163v-192c0-11.782-9.551-21.333-21.333-21.333H22.752c-0.821-0.017-1.635,0.014-2.439,0.091
				c-0.169,0.014-0.335,0.032-0.503,0.05c-0.164,0.02-0.328,0.044-0.491,0.067C10.204,2.359,4.233,8.556,1.998,15.917
				c-0.158,0.502-0.293,1.014-0.414,1.533c-0.005,0.02-0.008,0.04-0.013,0.06c-0.125,0.542-0.226,1.093-0.309,1.652
				c-0.008,0.052-0.016,0.104-0.024,0.156c-0.071,0.503-0.128,1.01-0.163,1.525C1.016,21.615,1,22.389,1.019,23.163v425.851
				c0,10.169,7.178,18.925,17.15,20.919L231.502,512.6c13.201,2.64,25.517-7.457,25.517-20.919v-21.333h106.667
				c11.782,0,21.333-9.551,21.333-21.333v-192h55.163l-27.582,27.582c-8.331,8.331-8.331,21.839,0,30.17
				c8.331,8.331,21.839,8.331,30.17,0l64-64c0.004-0.004,0.007-0.008,0.011-0.012C507.275,250.26,507.741,249.742,508.184,249.202z
				 M214.353,465.658L43.686,431.525V51.02l170.667,51.2v346.794V465.658z M342.353,427.681h-85.333V86.347
				c0-9.421-6.18-17.727-15.203-20.434l-74.11-22.233h174.647V427.681z"/>
			<path stroke="white" d="M176.86,300.318l-42.667-10.667c-11.43-2.858-23.013,4.092-25.87,15.522c-2.858,11.43,4.092,23.013,15.522,25.87
				l42.667,10.667c11.43,2.858,23.013-4.092,25.87-15.522C195.24,314.758,188.29,303.175,176.86,300.318z"/>
		</g>
	</g>
</g>
<g>
</g>
<g>
</g>
<g>
</g>
<g>
</g>
<g>
</g>
<g>
</g>
<g>
</g>
<g>
</g>
<g>
</g>
<g>
</g>
<g>
</g>
<g>
</g>
<g>
</g>
<g>
</g>
<g>
</g>
</svg>
