<?xml version="1.0" encoding="iso-8859-1"?>
<!-- Generator: Adobe Illustrator 18.0.0, SVG Export Plug-In . SVG Version: 6.00 Build 0)  -->
<!DOCTYPE svg PUBLIC "-//W3C//DTD SVG 1.1//EN" "http://www.w3.org/Graphics/SVG/1.1/DTD/svg11.dtd">
<svg version="1.1" id="Capa_1" xmlns="http://www.w3.org/2000/svg" xmlns:xlink="http://www.w3.org/1999/xlink" x="0px" y="0px"
	 viewBox="0 0 210.425 210.425" style="enable-background:new 0 0 210.425 210.425;fill:#212529;" xml:space="preserve">
<g>
	<path d="M105.212,0C47.198,0,0,47.198,0,105.212s47.198,105.212,105.212,105.212s105.212-47.198,105.212-105.212
		S163.227,0,105.212,0z M105.566,131.489c2.872,2.985,7.62,3.078,10.604,0.205c2.985-2.872,3.077-7.62,0.205-10.604l-11.571-12.027
		l20.872-32.757l51.027,63.138H34.762l37.754-42.309L105.566,131.489z M105.212,15c49.743,0,90.212,40.469,90.212,90.212
		c0,9.777-1.569,19.192-4.459,28.015l-60.178-74.461c-1.517-1.877-3.85-2.903-6.254-2.774c-2.41,0.136-4.607,1.423-5.904,3.458
		l-24.524,38.49L77.713,80.902c-1.447-1.504-3.42-2.334-5.545-2.299c-2.088,0.039-4.065,0.947-5.456,2.505L19.658,133.84
		C16.639,124.841,15,115.215,15,105.212C15,55.469,55.469,15,105.212,15z M105.212,195.425c-31.591,0-59.437-16.326-75.557-40.981
		h151.113C164.65,179.099,136.804,195.425,105.212,195.425z"/>
</g>
<g>
</g>
<g>
</g>
<g>
</g>
<g>
</g>
<g>
</g>
<g>
</g>
<g>
</g>
<g>
</g>
<g>
</g>
<g>
</g>
<g>
</g>
<g>
</g>
<g>
</g>
<g>
</g>
<g>
</g>
</svg>
